<?xml version="1.0" encoding="UTF-8"?>
<svg id="Calque_5" data-name="Calque 5" xmlns="http://www.w3.org/2000/svg" viewBox="0 0 1080 1724.41">
  <defs>
    <style>
      .cls-1 {
        fill: #f1b100;
      }

      .cls-2, .cls-3, .cls-4 {
        fill: #fff;
      }

      .cls-5 {
        fill: #8f49a3;
      }

      .cls-6 {
        fill: #d84437;
      }

      .cls-7 {
        fill: #0f9a58;
      }

      .cls-8 {
        fill: #4282f1;
      }

      .cls-9 {
        fill: #540a6c;
      }

      .cls-10, .cls-11 {
        fill: #7b2685;
      }

      .cls-3 {
        font-family: DonJose-Black, 'Don José';
        font-size: 691.15px;
      }

      .cls-3, .cls-4, .cls-11 {
        font-weight: 800;
      }

      .cls-4 {
        font-size: 565.1px;
      }

      .cls-4, .cls-11 {
        font-family: Akrobat-Black, Akrobat;
      }

      .cls-11 {
        font-size: 122.96px;
      }
    </style>
  </defs>
  <rect class="cls-10" x="133.61" y="142.32" width="812.78" height="1495.24" rx="42.92" ry="42.92"/>
  <text class="cls-3" transform="translate(353.09 1104.19)"><tspan x="0" y="0">1</tspan></text>
  <g>
    <path class="cls-2" d="m903.69,1547.95c-.13.22-.26.43-.39.65-1.05,1.74-2.27,3.46-3.18,5.27-.58,1.15-1.24,2.28-1.85,3.41s-1.05,2.32-1.47,3.55c-.5,1.46-.95,2.95-1.34,4.44-.36,1.37-.85,2.83-.95,4.23v.06c-.19,2.03-1.79,4.22-4.87,4.28-.7.04-1.43.07-2.18.08.76.79,1.36,1.79,1.72,3.05.19.66.28,1.38.28,2.14v8.98c-.09,2.17-1.14,7.28-9.04,7.89-.2.02-.4.02-.61.02h-19.55c-.48,0-.95-.03-1.4-.09-5.76-.77-7.42-4.17-7.9-6.13-.14-.59-.21-1.2-.21-1.87v-8.78c0-.68.09-1.33.26-1.95.47-1.72,1.86-4.51,5.89-5.68-1.49-1.04-2.74-2.46-3.71-4.23-1.33-2.42-2.06-5.48-2.06-8.59,0-1.4.15-2.8.45-4.16s.8-2.46,1.25-3.7c.43-1.16,1.23-2.24,1.93-3.27.76-1.11,1.56-2.19,2.41-3.23,1.71-2.1,3.61-4.02,5.61-5.84,1.78-1.62,3.51-3.33,4.97-5.25.43-.56.84-1.15,1.2-1.76.83-1.38,1.54-3,1.37-4.64-.08-.75-.25-1.28-.75-1.86-.62-.72-1.41-1.28-2.29-1.63-.93-.37-1.96-.49-2.96-.36-.77.1-1.53.19-2.31.28-1.94.24-3.89.62-5.8.92-2.1.33-3.98,1.17-6.15,1.14s-4.5-.85-5.79-2.64c-.86-1.2-1.19-2.69-1.46-4.14-.51-2.77-.9-5.57-1.16-8.38-.24-2.67-.86-6.01-.37-8.65.69-3.77,4.48-6.27,7.92-7.12,7.97-2.05,14.18-3.12,19.53-3.36,3.59-.16,7.24-.29,10.82-.09,3.29.18,6.57.69,9.72,1.64.76.23,1.51.48,2.25.76,1.39.52,2.68.89,3.95,1.67,1.47.9,2.75,2.07,3.98,3.26,2.51,2.44,4.62,5.3,6.17,8.44,1.86,3.76,2.93,7.9,3.14,12.09s.31,8.37-.03,12.55c-.34,4.16-1.15,8.31-2.75,12.17-.64,1.54-1.44,2.99-2.28,4.42Z"/>
    <g>
      <path class="cls-8" d="m853.09,1518.68c-.2-4.78-.41-9.34-.7-13.55-.08-1.34-.99-1.66-2.32-1.47l-2.5.72c-1.48.33-2.46.14-2.46-1.03.21-2.71,2-4.34,5.05-5.09,6.75-1.74,13.14-3,18.76-3.25,1.06-.06,2.13-.13,2,1.12,0,.03,0,.07-.02.1-.22.94-.28,1.95-.17,3.01.01.12,0,.25-.02.37-.26,1.12-1.1,1.37-2.13,1.32-.65-.08-1.28-.09-1.87,0-1.48.16-2.3.8-2.23,2.06.45,4.64.75,9.25.88,13.8.14,1.32-.78,2.07-2.44,2.41-2.18.18-4.66.64-7.31,1.25-1.7.39-2.59-.15-2.54-1.78Z"/>
      <path class="cls-1" d="m903.82,1517.08c-2.61-5.53-5.91-11.18-9.69-16.93-.63-1.16-1.33-1.9-2.07-2.28-4.04-1.85-8.65-2.84-13.82-3-1.55-.05-2.57.41-3.07,1.52-.63,1.32-1.08,3.02-1.45,4.9-.68,4.66-1.72,9.91-2.95,15.49-.44,2,.46,3.7,2.13,3.79,3.28.16,4.55-.56,6.93-.6,1.19-.05,1.91-.63,2.3-1.56.03-.08.06-.16.09-.25.33-1.06,1.1-1.7,2.53-1.72,1.22,0,2.55-.03,3.93-.07,1.29-.1,2.23.24,2.69,1.2.04.08.07.18.09.27.26,1.04.97,1.62,2.19,1.65,2.68-.03,5.37-.11,8.06-.23.08,0,.17-.01.25-.03,1.9-.36,2.37-1.12,1.83-2.17Zm-19.21-9.29c-.03-.17-.03-.34,0-.51.37-1.86.62-3.98.8-6.22l1.3.16c.93,2.4,1.82,4.73,2.29,6.29.84,2.49-3.96,2.41-4.4.28Z"/>
      <path class="cls-6" d="m894.21,1527.86c-.02-.12-.05-.23-.08-.35-.83-3.05-3.12-4.33-6.05-4.83-.06,0-.12-.02-.17-.02-3.64-.36-8.29.02-13.4.72-.84.09-1,.47-.75,1.01.02.04.04.09.05.13,2.04,5.98-2.74,12.05-9.78,18.16-.18.16-.14.31.21.39l8.54,1.87c.33.07.59,0,.78-.21l2.33-2.64c.64-.69,1.4-1.13,2.48-.98,2.67.31,5.42.21,8.31-.53,6.15-1.88,8.72-6.08,7.53-12.71Zm-13.17,6.85l-.29-.03c.72-1.52,1.3-3.11,1.73-4.76,4.64-.83,4.28,5.6-1.44,4.79Z"/>
      <path class="cls-8" d="m890.53,1545.44c5.43-7.2,6.17-14.47,5.84-21.75-.09-1.05.35-1.59,1.37-1.59,2.17-.04,4.2-.1,5.65-.23,1,.01,1.55.5,1.51,1.64.41,10.44-1.43,17.38-4.56,22.32-.71,1.05-1.76,1.44-3.06,1.35-1.54-.17-3.69-.29-5.81-.4-.05,0-.1,0-.15-.01-1.13-.15-1.43-.58-.79-1.33Z"/>
      <path class="cls-1" d="m872.96,1569.29c-2.72.31-5.29.49-7.68.5-1.41-.03-2.8-.21-3.77-.45-8.58-2.1-8.23-18.61-1.09-20.36,3.7-1.19,7.54-1.18,11.52.04,1.79.57,3.5,1.15,5.16,1.75.64.25.67.72.3,1.35-.52.82-.99,1.6-1.3,2.24-.43.87-1.21,1-2.12.87-2.97-.74-5.71-1.37-7.52-1.6-1.35-.2-2.3.29-2.83,1.54-2.13,6.45-.74,8.46,2.02,8.75.93-.07,1.09-.75,1.07-1.57-.79-.21-.99-.67-.97-1.21,0-.9.19-2.12.43-3.43.29-.7.78-1.13,1.73-.92,1.95.39,3.85.71,5.69.96.63.1.97.44,1.02,1.03.01.13,0,.26-.02.39-.48,2.86-.51,5.91-.32,9.06-.03.66-.53.97-1.34,1.05Z"/>
      <g>
        <path class="cls-6" d="m879.91,1551.87c.42-.54,1.01-.69,1.74-.51,5.38,1.25,9.93,1.8,13.71,1.69.63-.03.75.17.5.53l-1.5,2.6c-.49.85-1.35,1.21-2.35,1.39-1.96.16-3.74-.1-5.45-.5-1.36-.28-1.94,1.41-.38,1.58,1.79.3,3.45.51,4.82.5.52-.05.72.16.59.62-.3,1.11-.55,2.2-.73,3.25-.16.73-.65.97-1.27,1.02-1.27.07-2.86-.07-4.57-.3-1.18-.11-1.56,1.49.04,1.58,1.67.23,3.43.34,5.29.31.63-.01.82.42.58,1.3-.18.78-.3,1.55-.36,2.29-.04.47-.42.69-1.06.69-3.45.21-7.33.06-11.45-.26-1.17-.02-1.73-.45-1.81-1.21-.73-5.95.44-11.48,3.67-16.54Z"/>
        <path class="cls-6" d="m885.89,1551.12c-.69-.16-.69-.43-.19-.79l2.25-1.5c.35-.25.78-.31,1.31-.21l4.95.88c.62.12.73.46.09.75l-3.32,1.38c-.34.14-.73.17-1.15.13l-3.94-.64Z"/>
      </g>
      <path class="cls-7" d="m860.06,1575h19.72c.12,0,.25,0,.37.01,2.7.26,4.66,1.1,5.22,3.06.1.34.13.7.13,1.05v8.82c-.09,2.25-1.54,3.8-5.38,4.09-.1,0-.21.01-.31.01h-19.55c-.29,0-.59-.02-.88-.06-2.63-.35-4.15-1.4-4.58-3.14-.07-.3-.1-.62-.1-.93v-8.78c0-.3.03-.61.11-.9.53-1.95,2.23-2.96,4.86-3.23.13-.01.26-.02.38-.02Z"/>
    </g>
  </g>
  <circle class="cls-5" cx="540" cy="889.94" r="374.23"/>
  <path class="cls-9" d="m516.27,902.1h-75.72l325.08,286.43c111.5-90,151.5-179.78,147.48-326.32l-273.64-187.28-123,7.9-.19,219.27Z"/>
  <path class="cls-9" d="m621.53,1050.02h-150.41l239.64,173.24c134.36-72.01,211.61-190.86,202.35-361.06l-291.58,187.81Z"/>
  <text class="cls-4" transform="translate(410.03 1070.5)"><tspan x="0" y="0">5</tspan></text>
  <circle class="cls-2" cx="257.55" cy="275.5" r="61.36"/>
  <text class="cls-11" transform="translate(229.14 321.32)"><tspan x="0" y="0">5</tspan></text>
</svg>