<?xml version="1.0" encoding="UTF-8"?>
<svg id="Calque_2" data-name="Calque 2" xmlns="http://www.w3.org/2000/svg" viewBox="0 0 513.53 795.73">
  <defs>
    <style>
      .cls-1 {
        fill: #f4b400;
      }

      .cls-2 {
        fill: #fff;
      }

      .cls-3 {
        fill: #db4437;
      }

      .cls-4 {
        fill: #0f9d58;
      }

      .cls-5 {
        fill: #4285f4;
      }
    </style>
  </defs>
  <g id="Calque_1-2" data-name="Calque 1">
    <g>
      <path class="cls-2" d="m473.72,431.97c-.97,1.64-1.96,3.29-2.95,4.93-7.94,13.15-17.21,26.15-24.07,39.88-4.35,8.71-9.39,17.23-14.02,25.81s-7.93,17.57-11.1,26.87c-3.78,11.08-7.15,22.3-10.11,33.63-2.71,10.36-6.4,21.41-7.22,32.04l-.04.46c-1.41,15.38-13.53,31.92-36.8,32.42-5.28.31-10.81.52-16.52.64,5.72,6.01,10.29,13.58,12.99,23.1,1.43,5.03,2.15,10.47,2.15,16.16v67.37l-.02.6c-.66,16.42-8.64,55.11-68.42,59.69-1.48.12-3.04.17-4.63.17h-147.95c-3.62,0-7.19-.23-10.61-.69-43.6-5.85-56.17-31.57-59.79-46.38-1.08-4.44-1.61-9.06-1.61-14.13v-66.46c0-5.12.65-10.08,1.93-14.75,3.58-13.05,14.05-34.12,44.58-42.95-11.24-7.85-20.74-18.63-28.08-32.02-10.07-18.35-15.62-41.43-15.62-64.99,0-10.58,1.1-21.17,3.37-31.51,2.16-9.83,6.02-18.64,9.48-28,3.24-8.79,9.34-16.96,14.64-24.73,5.72-8.39,11.81-16.53,18.23-24.41,12.97-15.91,27.34-30.42,42.47-44.18,13.48-12.25,26.55-25.2,37.62-39.71,3.26-4.27,6.33-8.68,9.09-13.29,6.26-10.42,11.66-22.68,10.36-35.12-.59-5.66-1.9-9.69-5.69-14.09-4.67-5.42-10.64-9.72-17.29-12.36-7.07-2.8-14.86-3.71-22.39-2.69-5.85.79-11.59,1.4-17.48,2.14-14.66,1.85-29.44,4.68-43.91,6.95-15.86,2.48-30.08,8.87-46.55,8.64-16.64-.23-34.07-6.45-43.8-19.95-6.53-9.06-8.98-20.35-11.01-31.33-3.89-21-6.81-42.17-8.75-63.43-1.84-20.17-6.51-45.46-2.84-65.48,5.23-28.51,33.86-47.42,59.95-53.9C121.62,11.38,168.59,3.29,209.08,1.45c27.17-1.23,54.77-2.18,81.88-.69,24.88,1.37,49.68,5.26,73.57,12.4,5.74,1.72,11.43,3.62,17.05,5.72,10.49,3.92,20.25,6.71,29.89,12.6,11.09,6.78,20.8,15.63,30.13,24.67,19.03,18.43,34.95,40.1,46.7,63.85,14.08,28.44,22.15,59.8,23.77,91.48,1.61,31.56,2.33,63.36-.24,94.98-2.56,31.44-8.7,62.85-20.83,92.08-4.85,11.67-10.86,22.6-17.27,33.42Z"/>
      <g>
        <path class="cls-5" d="m90.83,210.49c-1.5-36.2-3.14-70.67-5.3-102.5-.58-10.16-7.5-12.57-17.57-11.13l-18.88,5.46c-11.2,2.48-18.6,1.09-18.63-7.81,1.58-20.52,15.13-32.8,38.22-38.51,51.09-13.15,99.42-22.67,141.99-24.58,8.03-.48,16.1-1.01,15.12,8.51-.03.24-.07.49-.13.73-1.67,7.13-2.08,14.72-1.27,22.76.1.94.05,1.91-.16,2.83-1.96,8.48-8.29,10.38-16.13,9.99-4.95-.57-9.71-.71-14.13,0-11.22,1.23-17.37,6.04-16.86,15.57,3.4,35.13,5.65,69.96,6.68,104.46,1.08,10-5.9,15.63-18.43,18.26-16.48,1.34-35.28,4.81-55.33,9.44-12.84,2.92-19.63-1.11-19.19-13.47Z"/>
        <path class="cls-1" d="m474.68,198.38c-19.79-41.84-44.71-84.63-73.3-128.08-4.8-8.76-10.04-14.36-15.66-17.24-30.58-14.01-65.49-21.47-104.55-22.7-11.71-.41-19.45,3.1-23.21,11.52-4.78,9.95-8.2,22.83-10.97,37.11-5.11,35.23-13,75.02-22.36,117.22-3.36,15.12,3.46,27.99,16.15,28.64,24.81,1.23,34.41-4.26,52.47-4.58,9.04-.38,14.46-4.75,17.44-11.81.26-.61.45-1.24.64-1.87,2.5-8.01,8.35-12.85,19.16-12.99,9.26-.03,19.26-.21,29.77-.49,9.75-.78,16.87,1.83,20.39,9.11.31.64.5,1.33.68,2.02,1.98,7.9,7.31,12.26,16.57,12.45,20.26-.23,40.6-.82,61.02-1.71.64-.03,1.29-.1,1.92-.22,14.37-2.71,17.91-8.48,13.83-16.39Zm-145.34-70.29c-.26-1.26-.2-2.56.05-3.82,2.81-14.11,4.68-30.08,6.02-47.08l9.86,1.19c7.02,18.14,13.75,35.76,17.35,47.63,6.38,18.83-29.98,18.21-33.28,2.09Z"/>
        <path class="cls-3" d="m401.97,279.95c-.16-.88-.35-1.77-.58-2.64-6.26-23.09-23.62-32.75-45.81-36.58-.44-.08-.88-.13-1.32-.18-27.52-2.7-62.71.12-101.36,5.44-6.35.69-7.57,3.52-5.65,7.67.15.32.3.66.41,1,15.45,45.22-20.7,91.19-74.01,137.42-1.36,1.22-1.07,2.33,1.55,2.95l64.66,14.13c2.47.53,4.46.05,5.88-1.58l17.66-20c4.81-5.26,10.62-8.57,18.74-7.45,20.21,2.32,41.04,1.6,62.86-3.98,46.56-14.23,66.02-45.99,56.97-96.21Zm-99.69,51.81l-2.21-.23c5.42-11.54,9.81-23.52,13.1-35.98,35.08-6.26,32.37,42.41-10.89,36.21Z"/>
        <path class="cls-5" d="m374.14,412.98c41.07-54.48,46.67-109.47,44.2-164.58-.7-7.93,2.67-12.04,10.38-12.07,16.41-.31,31.81-.75,42.72-1.71,7.57.08,11.76,3.8,11.43,12.41,3.13,78.96-10.8,131.48-34.5,168.87-5.37,7.93-13.33,10.89-23.16,10.23-11.62-1.3-27.94-2.22-43.99-2.99-.37-.02-.74-.05-1.1-.09-8.55-1.11-10.8-4.38-5.99-10.07Z"/>
        <path class="cls-1" d="m241.18,593.43c-20.57,2.37-39.99,3.68-58.1,3.79-10.68-.25-21.21-1.6-28.51-3.38-64.9-15.87-62.3-140.8-8.24-154.04,28-9.04,57.06-8.95,87.2.28,13.52,4.31,26.48,8.74,39.01,13.25,4.88,1.88,5.1,5.49,2.24,10.23-3.95,6.21-7.5,12.08-9.82,16.91-3.23,6.58-9.16,7.59-16.06,6.59-22.49-5.58-43.24-10.39-56.87-12.11-10.21-1.55-17.43,2.18-21.4,11.64-16.15,48.83-5.58,64.02,15.3,66.23,7.01-.55,8.22-5.7,8.13-11.89-5.96-1.6-7.47-5.04-7.31-9.16,0-6.78,1.44-16.02,3.26-25.92,2.22-5.28,5.91-8.55,13.13-6.98,14.72,2.92,29.1,5.37,43.04,7.25,4.79.77,7.37,3.37,7.74,7.8.08.99,0,1.99-.17,2.97-3.61,21.63-3.82,44.74-2.42,68.57-.23,5.03-4.04,7.36-10.15,7.97Z"/>
        <g>
          <path class="cls-3" d="m293.72,461.66c3.21-4.08,7.67-5.18,13.13-3.89,40.72,9.48,75.13,13.58,103.77,12.78,4.76-.22,5.67,1.27,3.75,4.02l-11.37,19.68c-3.67,6.44-10.19,9.17-17.77,10.52-14.83,1.19-28.28-.75-41.22-3.81-10.26-2.09-14.71,10.64-2.89,11.92,13.53,2.28,26.09,3.82,36.49,3.75,3.95-.36,5.42,1.21,4.45,4.69-2.24,8.43-4.13,16.65-5.55,24.59-1.24,5.52-4.94,7.33-9.6,7.69-9.59.55-21.66-.56-34.6-2.26-8.93-.85-11.79,11.29.29,11.95,12.6,1.75,25.94,2.55,40.07,2.35,4.76-.11,6.24,3.16,4.41,9.84-1.37,5.92-2.3,11.71-2.73,17.36-.33,3.54-3.17,5.19-8.02,5.19-26.07,1.56-55.5.48-86.68-1.98-8.85-.12-13.12-3.38-13.68-9.19-5.5-45.03,3.32-86.85,27.74-125.18Z"/>
          <path class="cls-3" d="m338.98,455.95c-5.19-1.19-5.21-3.26-1.41-5.99l16.99-11.35c2.62-1.86,5.92-2.37,9.89-1.57l37.45,6.67c4.71.94,5.51,3.47.68,5.69l-25.1,10.43c-2.58,1.03-5.49,1.32-8.67.99l-29.82-4.86Z"/>
        </g>
        <path class="cls-4" d="m143.54,636.66l149.19-.03c.94,0,1.87.04,2.81.13,20.45,1.94,35.28,8.34,39.49,23.18.73,2.59,1.02,5.28,1.02,7.97v66.78c-.68,17.04-11.62,28.74-40.74,30.97-.77.06-1.56.08-2.33.08h-147.96c-2.21,0-4.43-.13-6.62-.43-19.93-2.67-31.42-10.62-34.63-23.76-.56-2.29-.76-4.66-.76-7.02v-66.47c0-2.3.26-4.6.86-6.81,4.05-14.75,16.9-22.42,36.76-24.46.97-.1,1.94-.14,2.91-.14Z"/>
      </g>
    </g>
  </g>
</svg>