<?xml version="1.0" encoding="utf-8"?>
<!-- Generator: Adobe Illustrator 27.2.0, SVG Export Plug-In . SVG Version: 6.00 Build 0)  -->
<svg version="1.1" id="Calque_1" xmlns="http://www.w3.org/2000/svg" xmlns:xlink="http://www.w3.org/1999/xlink" x="0px" y="0px"
	 viewBox="0 0 2174.3 1955" style="enable-background:new 0 0 2174.3 1955;" xml:space="preserve">
<style type="text/css">
	.st0{fill:#FFFFFF;stroke:#FFFFFF;stroke-width:7;stroke-linejoin:round;stroke-miterlimit:10;}
	.st1{fill:#DB4437;}
	.st2{fill:#F4B400;}
	.st3{fill:#0F9D58;}
	.st4{fill:#4285F4;}
	.st5{fill:#FFFFFF;}
	.st6{fill:none;stroke:#000000;stroke-width:7;stroke-miterlimit:10;}
	.st7{fill:none;stroke:#FFFFFF;stroke-width:7;stroke-linejoin:round;stroke-miterlimit:10;}
	.st8{fill:#F4B400;stroke:#FFFFFF;stroke-width:7;stroke-linejoin:round;stroke-miterlimit:10;}
	.st9{fill:#DB4437;stroke:#FFFFFF;stroke-width:7;stroke-linejoin:round;stroke-miterlimit:10;}
	.st10{fill:#4285F4;stroke:#FFFFFF;stroke-width:7;stroke-linejoin:round;stroke-miterlimit:10;}
	.st11{fill:#0F9D58;stroke:#FFFFFF;stroke-width:7;stroke-linejoin:round;stroke-miterlimit:10;}
	.st12{fill:#4285F4;stroke:#FFFFFF;stroke-width:6;stroke-linejoin:round;stroke-miterlimit:10;}
</style>
<circle class="st0" cx="1090.2" cy="947.1" r="797.7"/>
<g>
	<g>
		<path class="st1" d="M1087.4,936l-86.3-86.3c-1.5-1.5-0.4-4,1.6-4l172.6,0c2.1,0,3.1,2.5,1.6,4l-86.3,86.3
			C1089.8,936.9,1088.3,936.9,1087.4,936z"/>
		<path class="st2" d="M1077.7,949.1l-86.3,86.3c-1.5,1.5-4,0.4-4-1.6l0-172.6c0-2.1,2.5-3.1,4-1.6l86.3,86.3
			C1078.6,946.7,1078.6,948.2,1077.7,949.1z"/>
		<path class="st3" d="M1090.7,958.8l86.3,86.3c1.5,1.5,0.4,4-1.6,4h-172.6c-2.1,0-3.1-2.5-1.6-4l86.3-86.3
			C1088.3,957.9,1089.8,957.9,1090.7,958.8z"/>
		<path class="st4" d="M1100.5,945.8l86.3-86.3c1.5-1.5,4-0.4,4,1.6v172.6c0,2.1-2.5,3.1-4,1.6l-86.3-86.3
			C1099.6,948.2,1099.6,946.7,1100.5,945.8z"/>
	</g>
	<g>
		<g>
			<path class="st4" d="M1203.4,1034.2V869.6c0-3.5,2.8-6.3,6.3-6.3h79c3.5,0,6.3,2.8,6.3,6.3v164.7c0,3.5-2.8,6.3-6.3,6.3h-79
				C1206.2,1040.6,1203.4,1037.7,1203.4,1034.2z"/>
		</g>
		<g>
			<path class="st5" d="M1255.2,935.3h8.5c10,0,16.6,6.7,16.6,16.6c0,9.9-6.6,16.6-16.6,16.6h-29.1c-10.1,0-16.6-6.6-16.6-16.5
				c0-9.7,6.4-16.1,16.5-16.3v11.7c-3.2,0.3-5.2,1.7-5.2,4.6s1.5,4.7,5.1,4.7h7.6c-1.4-1.7-2.2-4.4-2.2-6.8
				C1239.9,941.1,1246.5,935.3,1255.2,935.3z M1256.1,947.1c-3.4,0-5.5,1.7-5.5,4.7c0,3.1,2.1,4.9,5.5,4.9h7.6
				c3.4,0,5.3-1.8,5.3-4.8s-2-4.8-5.3-4.8H1256.1z"/>
		</g>
		<g>
			<path class="st4" d="M1307.6,1034.1V869.4c0-3.5,2.8-6.3,6.3-6.3h79c3.5,0,6.3,2.8,6.3,6.3v164.7c0,3.5-2.8,6.3-6.3,6.3h-79
				C1310.5,1040.4,1307.6,1037.6,1307.6,1034.1z"/>
		</g>
		<g>
			<path class="st5" d="M1359.5,935.3h6.3c11.7,0,18.3,6.6,18.3,16.5c0,9.9-6.6,16.2-17.4,16.4v-11.9c4.6-0.3,6-1.7,6-4.6
				c0-2.9-1.5-4.6-6.8-4.6h-6.6c-5.3,0-6.8,1.5-6.8,4c0,2.7,1.2,4.3,4.9,4.9v11.5h-34.6v-30.3h10.3v18.6h9.9c-0.9-1.8-1.6-4-1.6-6.3
				C1341.4,941.3,1347.9,935.3,1359.5,935.3z"/>
		</g>
		<g>
			<path class="st4" d="M1724.5,1034.1V869.4c0-3.5,2.8-6.3,6.3-6.3h79c3.5,0,6.3,2.8,6.3,6.3v164.7c0,3.5-2.8,6.3-6.3,6.3h-79
				C1727.4,1040.4,1724.5,1037.6,1724.5,1034.1z"/>
		</g>
		<g>
			<path class="st4" d="M1620.3,1034.1V869.4c0-3.5,2.8-6.3,6.3-6.3h79c3.5,0,6.3,2.8,6.3,6.3v164.7c0,3.5-2.8,6.3-6.3,6.3h-79
				C1623.1,1040.4,1620.3,1037.6,1620.3,1034.1z"/>
		</g>
		<g>
			<path class="st4" d="M1516.1,1034.1V869.4c0-3.5,2.8-6.3,6.3-6.3h79c3.5,0,6.3,2.8,6.3,6.3v164.7c0,3.5-2.8,6.3-6.3,6.3h-79
				C1518.9,1040.4,1516.1,1037.6,1516.1,1034.1z"/>
		</g>
		<g>
			<path class="st4" d="M1411.9,1034.1V869.4c0-3.5,2.8-6.3,6.3-6.3h79c3.5,0,6.3,2.8,6.3,6.3v164.7c0,3.5-2.8,6.3-6.3,6.3h-79
				C1414.7,1040.4,1411.9,1037.6,1411.9,1034.1z"/>
		</g>
		<g>
			<path class="st5" d="M1474,932.4v6.2h13.8v11.3H1474v21.3h-6.2l-40.2-11v-11.4l35.9,10v-9l-20-1.8v-9.3h20v-6.2H1474z"/>
		</g>
		<g>
			<path class="st5" d="M1569.6,935h3.7c12.6,0,19.2,4.6,19.2,16.7c0,10.7-6.5,16.3-17.6,16.8v-11.5c4.1-0.3,6.3-1.6,6.3-5.1
				c0-4.2-2.5-5.2-8.1-5.2h-3c-5.8,0-7.1,2.1-7.1,6.1v5.7h-7.6l-13.5-8.2v16.1h-10.6v-30.1h7.7l15.2,9.4
				C1555.3,939,1562.3,935,1569.6,935z"/>
		</g>
		<g>
			<path class="st5" d="M1689.5,968.4c-19.1,0-27.7-21.5-37.8-21.5c-2.6,0-5.2,1.4-5.2,4.7c0,3.1,2.2,5,6.3,5.2v11
				c-11.4-0.5-17.3-6.3-17.3-16c0-11.4,8.1-16.5,15.7-16.5c15.4,0,25.6,20.8,34.7,20.8v-21.1h10.8v33.4H1689.5z"/>
		</g>
		<g>
			<path class="st5" d="M1740.3,941.8h60.2v11.6h-44.6l4.7,8.3H1748l-7.7-12.6V941.8z"/>
		</g>
	</g>
	<g>
		<g>
			<path class="st3" d="M1007.7,1062.2h164.7c3.5,0,6.3,2.8,6.3,6.3v79c0,3.5-2.8,6.3-6.3,6.3h-164.7c-3.5,0-6.3-2.8-6.3-6.3v-79
				C1001.4,1065,1004.2,1062.2,1007.7,1062.2z"/>
		</g>
		<g>
			<path class="st5" d="M1106.6,1114v8.5c0,10-6.7,16.6-16.6,16.6c-9.9,0-16.6-6.6-16.6-16.6v-29.1c0-10.1,6.6-16.6,16.5-16.6
				c9.7,0,16.1,6.4,16.3,16.5h-11.7c-0.3-3.2-1.7-5.2-4.6-5.2s-4.7,1.5-4.7,5.1v7.6c1.7-1.4,4.4-2.2,6.8-2.2
				C1100.8,1098.7,1106.6,1105.2,1106.6,1114z M1094.9,1114.9c0-3.4-1.7-5.5-4.7-5.5c-3.1,0-4.9,2.1-4.9,5.5v7.6
				c0,3.4,1.8,5.3,4.8,5.3s4.8-2,4.8-5.3V1114.9z"/>
		</g>
		<g>
			<path class="st3" d="M1007.9,1166.4h164.7c3.5,0,6.3,2.8,6.3,6.3v79c0,3.5-2.8,6.3-6.3,6.3h-164.7c-3.5,0-6.3-2.8-6.3-6.3v-79
				C1001.5,1169.2,1004.4,1166.4,1007.9,1166.4z"/>
		</g>
		<g>
			<path class="st5" d="M1106.7,1218.2v6.3c0,11.7-6.6,18.3-16.5,18.3c-9.9,0-16.2-6.6-16.4-17.4h11.9c0.3,4.6,1.7,6,4.6,6
				c2.9,0,4.6-1.5,4.6-6.8v-6.6c0-5.3-1.5-6.8-4-6.8c-2.7,0-4.3,1.2-4.9,4.9h-11.5v-34.6h30.3v10.3H1086v9.9c1.8-0.9,4-1.6,6.3-1.6
				C1100.6,1200.2,1106.7,1206.7,1106.7,1218.2z"/>
		</g>
		<g>
			<path class="st3" d="M1007.9,1583.3h164.7c3.5,0,6.3,2.8,6.3,6.3v79c0,3.5-2.8,6.3-6.3,6.3h-164.7c-3.5,0-6.3-2.8-6.3-6.3v-79
				C1001.5,1586.2,1004.4,1583.3,1007.9,1583.3z"/>
		</g>
		<g>
			<path class="st3" d="M1007.9,1479.1h164.7c3.5,0,6.3,2.8,6.3,6.3v79c0,3.5-2.8,6.3-6.3,6.3h-164.7c-3.5,0-6.3-2.8-6.3-6.3v-79
				C1001.5,1481.9,1004.4,1479.1,1007.9,1479.1z"/>
		</g>
		<g>
			<path class="st3" d="M1007.9,1374.9h164.7c3.5,0,6.3,2.8,6.3,6.3v79c0,3.5-2.8,6.3-6.3,6.3h-164.7c-3.5,0-6.3-2.8-6.3-6.3v-79
				C1001.5,1377.7,1004.4,1374.9,1007.9,1374.9z"/>
		</g>
		<g>
			<path class="st3" d="M1007.9,1270.6h164.7c3.5,0,6.3,2.8,6.3,6.3v79c0,3.5-2.8,6.3-6.3,6.3h-164.7c-3.5,0-6.3-2.8-6.3-6.3v-79
				C1001.5,1273.5,1004.4,1270.6,1007.9,1270.6z"/>
		</g>
		<g>
			<path class="st5" d="M1109.6,1332.8h-6.2v13.8h-11.3v-13.8h-21.3v-6.2l11-40.2h11.4l-10,35.9h9l1.8-20h9.3v20h6.2V1332.8z"/>
		</g>
		<g>
			<path class="st5" d="M1106.9,1428.4v3.7c0,12.6-4.6,19.2-16.7,19.2c-10.7,0-16.3-6.5-16.8-17.6h11.5c0.3,4.1,1.6,6.3,5.1,6.3
				c4.2,0,5.2-2.5,5.2-8.1v-3c0-5.8-2.1-7.1-6.1-7.1h-5.7v-7.6l8.2-13.5h-16.1v-10.6h30.1v7.7l-9.4,15.2
				C1103,1414.1,1106.9,1421.1,1106.9,1428.4z"/>
		</g>
		<g>
			<path class="st5" d="M1073.5,1548.3c0-19.1,21.5-27.7,21.5-37.8c0-2.6-1.4-5.2-4.7-5.2c-3.1,0-5,2.2-5.2,6.3h-11
				c0.5-11.4,6.3-17.3,16-17.3c11.4,0,16.5,8.1,16.5,15.7c0,15.4-20.8,25.6-20.8,34.7h21.1v10.8h-33.4V1548.3z"/>
		</g>
		<g>
			<path class="st5" d="M1100.1,1599v60.2h-11.6v-44.6l-8.3,4.7v-12.6l12.6-7.7H1100.1z"/>
		</g>
	</g>
	<g>
		<g>
			<path class="st2" d="M974.8,865.4V1030c0,3.5-2.8,6.3-6.3,6.3h-79c-3.5,0-6.3-2.8-6.3-6.3V865.4c0-3.5,2.8-6.3,6.3-6.3h79
				C971.9,859,974.8,861.9,974.8,865.4z"/>
		</g>
		<g>
			<path class="st5" d="M922.9,964.3h-8.5c-10,0-16.6-6.7-16.6-16.6c0-9.9,6.6-16.6,16.6-16.6h29.1c10.1,0,16.6,6.6,16.6,16.5
				c0,9.7-6.4,16.1-16.5,16.3v-11.7c3.2-0.3,5.2-1.7,5.2-4.6s-1.5-4.7-5.1-4.7h-7.6c1.4,1.7,2.2,4.4,2.2,6.8
				C938.2,958.5,931.7,964.3,922.9,964.3z M922.1,952.5c3.4,0,5.5-1.7,5.5-4.7c0-3.1-2.1-4.9-5.5-4.9h-7.6c-3.4,0-5.3,1.8-5.3,4.8
				s2,4.8,5.3,4.8H922.1z"/>
		</g>
		<g>
			<path class="st2" d="M870.5,865.5v164.7c0,3.5-2.8,6.3-6.3,6.3h-79c-3.5,0-6.3-2.8-6.3-6.3V865.5c0-3.5,2.8-6.3,6.3-6.3h79
				C867.7,859.2,870.5,862,870.5,865.5z"/>
		</g>
		<g>
			<path class="st5" d="M818.7,964.3h-6.3c-11.7,0-18.3-6.6-18.3-16.5c0-9.9,6.6-16.2,17.4-16.4v11.9c-4.6,0.3-6,1.7-6,4.6
				c0,2.9,1.5,4.6,6.8,4.6h6.6c5.3,0,6.8-1.5,6.8-4c0-2.7-1.2-4.3-4.9-4.9V932h34.6v30.3H845v-18.6h-9.9c0.9,1.8,1.6,4,1.6,6.3
				C836.8,958.3,830.2,964.3,818.7,964.3z"/>
		</g>
		<g>
			<path class="st2" d="M453.6,865.5v164.7c0,3.5-2.8,6.3-6.3,6.3h-79c-3.5,0-6.3-2.8-6.3-6.3V865.5c0-3.5,2.8-6.3,6.3-6.3h79
				C450.8,859.2,453.6,862,453.6,865.5z"/>
		</g>
		<g>
			<path class="st2" d="M557.9,865.5v164.7c0,3.5-2.8,6.3-6.3,6.3h-79c-3.5,0-6.3-2.8-6.3-6.3V865.5c0-3.5,2.8-6.3,6.3-6.3h79
				C555,859.2,557.9,862,557.9,865.5z"/>
		</g>
		<g>
			<path class="st2" d="M662.1,865.5v164.7c0,3.5-2.8,6.3-6.3,6.3h-79c-3.5,0-6.3-2.8-6.3-6.3V865.5c0-3.5,2.8-6.3,6.3-6.3h79
				C659.2,859.2,662.1,862,662.1,865.5z"/>
		</g>
		<g>
			<path class="st2" d="M766.3,865.5v164.7c0,3.5-2.8,6.3-6.3,6.3h-79c-3.5,0-6.3-2.8-6.3-6.3V865.5c0-3.5,2.8-6.3,6.3-6.3h79
				C763.5,859.2,766.3,862,766.3,865.5z"/>
		</g>
		<g>
			<path class="st5" d="M704.2,967.2v-6.2h-13.8v-11.3h13.8v-21.3h6.2l40.2,11v11.4l-35.9-10v9l20,1.8v9.3h-20v6.2H704.2z"/>
		</g>
		<g>
			<path class="st5" d="M608.5,964.6h-3.7c-12.6,0-19.2-4.6-19.2-16.7c0-10.7,6.5-16.3,17.6-16.8v11.5c-4.1,0.3-6.3,1.6-6.3,5.1
				c0,4.2,2.5,5.2,8.1,5.2h3c5.8,0,7.1-2.1,7.1-6.1v-5.7h7.6l13.5,8.2v-16.1h10.6v30.1h-7.7l-15.2-9.4
				C622.9,960.6,615.8,964.6,608.5,964.6z"/>
		</g>
		<g>
			<path class="st5" d="M488.6,931.2c19.1,0,27.7,21.5,37.8,21.5c2.6,0,5.2-1.4,5.2-4.7c0-3.1-2.2-5-6.3-5.2v-11
				c11.4,0.5,17.3,6.3,17.3,16c0,11.4-8.1,16.5-15.7,16.5c-15.4,0-25.6-20.8-34.7-20.8v21.1h-10.8v-33.4H488.6z"/>
		</g>
		<g>
			<path class="st5" d="M437.9,957.8h-60.2v-11.6h44.6l-4.7-8.3h12.6l7.7,12.6V957.8z"/>
		</g>
	</g>
	<g>
		<g>
			<path class="st1" d="M1171.6,833.3h-164.7c-3.5,0-6.3-2.8-6.3-6.3v-79c0-3.5,2.8-6.3,6.3-6.3h164.7c3.5,0,6.3,2.8,6.3,6.3v79
				C1177.9,830.5,1175.1,833.3,1171.6,833.3z"/>
		</g>
		<g>
			<path class="st5" d="M1072.7,781.5V773c0-10,6.7-16.6,16.6-16.6c9.9,0,16.6,6.6,16.6,16.6V802c0,10.1-6.6,16.6-16.5,16.6
				c-9.7,0-16.1-6.4-16.3-16.5h11.7c0.3,3.2,1.7,5.2,4.6,5.2s4.7-1.5,4.7-5.1v-7.6c-1.7,1.4-4.4,2.2-6.8,2.2
				C1078.5,796.8,1072.7,790.2,1072.7,781.5z M1084.5,780.6c0,3.4,1.7,5.5,4.7,5.5c3.1,0,4.9-2.1,4.9-5.5V773c0-3.4-1.8-5.3-4.8-5.3
				s-4.8,2-4.8,5.3V780.6z"/>
		</g>
		<g>
			<path class="st1" d="M1171.4,729.1h-164.7c-3.5,0-6.3-2.8-6.3-6.3v-79c0-3.5,2.8-6.3,6.3-6.3h164.7c3.5,0,6.3,2.8,6.3,6.3v79
				C1177.8,726.2,1174.9,729.1,1171.4,729.1z"/>
		</g>
		<g>
			<path class="st5" d="M1072.6,677.2V671c0-11.7,6.6-18.3,16.5-18.3c9.9,0,16.2,6.6,16.4,17.4h-11.9c-0.3-4.6-1.7-6-4.6-6
				c-2.9,0-4.6,1.5-4.6,6.8v6.6c0,5.3,1.5,6.8,4,6.8c2.7,0,4.3-1.2,4.9-4.9h11.5v34.6h-30.3v-10.3h18.6v-9.9c-1.8,0.9-4,1.6-6.3,1.6
				C1078.7,695.3,1072.6,688.8,1072.6,677.2z"/>
		</g>
		<g>
			<path class="st1" d="M1171.4,312.2h-164.7c-3.5,0-6.3-2.8-6.3-6.3v-79c0-3.5,2.8-6.3,6.3-6.3h164.7c3.5,0,6.3,2.8,6.3,6.3v79
				C1177.8,309.3,1174.9,312.2,1171.4,312.2z"/>
		</g>
		<g>
			<path class="st1" d="M1171.4,416.4h-164.7c-3.5,0-6.3-2.8-6.3-6.3v-79c0-3.5,2.8-6.3,6.3-6.3h164.7c3.5,0,6.3,2.8,6.3,6.3v79
				C1177.8,413.6,1174.9,416.4,1171.4,416.4z"/>
		</g>
		<g>
			<path class="st1" d="M1171.4,520.6h-164.7c-3.5,0-6.3-2.8-6.3-6.3v-79c0-3.5,2.8-6.3,6.3-6.3h164.7c3.5,0,6.3,2.8,6.3,6.3v79
				C1177.8,517.8,1174.9,520.6,1171.4,520.6z"/>
		</g>
		<g>
			<path class="st1" d="M1171.4,624.9h-164.7c-3.5,0-6.3-2.8-6.3-6.3v-79c0-3.5,2.8-6.3,6.3-6.3h164.7c3.5,0,6.3,2.8,6.3,6.3v79
				C1177.8,622,1174.9,624.9,1171.4,624.9z"/>
		</g>
		<g>
			<path class="st5" d="M1069.7,562.7h6.2v-13.8h11.3v13.8h21.3v6.2l-11,40.2h-11.4l10-35.9h-9l-1.8,20h-9.3v-20h-6.2V562.7z"/>
		</g>
		<g>
			<path class="st5" d="M1072.4,467.1v-3.7c0-12.6,4.6-19.2,16.7-19.2c10.7,0,16.3,6.5,16.8,17.6h-11.5c-0.3-4.1-1.6-6.3-5.1-6.3
				c-4.2,0-5.2,2.5-5.2,8.1v3c0,5.8,2.1,7.1,6.1,7.1h5.7v7.6l-8.2,13.5h16.1v10.6h-30.1v-7.7l9.4-15.2
				C1076.3,481.4,1072.4,474.4,1072.4,467.1z"/>
		</g>
		<g>
			<path class="st5" d="M1105.8,347.2c0,19.1-21.5,27.7-21.5,37.8c0,2.6,1.4,5.2,4.7,5.2c3.1,0,5-2.2,5.2-6.3h11
				c-0.5,11.4-6.3,17.3-16,17.3c-11.4,0-16.5-8.1-16.5-15.7c0-15.4,20.8-25.6,20.8-34.7h-21.1V340h33.4V347.2z"/>
		</g>
		<g>
			<path class="st5" d="M1079.2,296.5v-60.2h11.6v44.6l8.3-4.7v12.6l-12.6,7.7H1079.2z"/>
		</g>
	</g>
	<line class="st6" x1="1119.9" y1="1687.5" x2="1119.9" y2="1674.9"/>
</g>
<g>
	<path class="st7" d="M1783.1,733.7c13,42.2,22.1,85.4,27.1,129.4"/>
	<path class="st7" d="M1787.6,1146.6c18.2-64.2,27.5-130.8,27.5-198.8c0-28.5-1.6-56.8-4.9-84.8h-0.4"/>
	<path class="st7" d="M1737.3,1275.4c7.4-14.6,14.3-29.5,20.7-44.6c11.7-27.5,21.5-55.6,29.6-84.2"/>
	<path class="st7" d="M1661.1,1395.3c29.3-37.4,54.8-77.5,76.2-119.9"/>
	<path class="st7" d="M1555,1505.2c16.3-13.7,32-28.1,47.2-43.3c21.1-21.1,40.8-43.3,59-66.5"/>
	<path class="st7" d="M1427.5,1591c45.4-24,88-52.7,127.5-85.8"/>
	<path class="st7" d="M1291.4,1646.1c27-7.8,53.6-17.3,79.7-28.3c19.2-8.1,38-17.1,56.4-26.8"/>
	<path class="st7" d="M1001.5,1669.7c28.6,3.4,57.5,5.1,86.6,5.1c30.6,0,60.8-1.9,90.7-5.6c38.2-4.7,75.7-12.5,112.5-23.2"/>
	<path class="st7" d="M744.6,1588.7c19.7,10.6,39.9,20.2,60.6,29c63,26.6,128.7,44,196.3,52"/>
	<path class="st7" d="M618,1502.4c39.2,33.3,81.5,62.1,126.6,86.4"/>
	<path class="st7" d="M513,1392.6c18.8,24.2,39.2,47.4,61.1,69.3c14.1,14.1,28.8,27.6,43.9,40.5"/>
	<path class="st7" d="M438,1273.5c21.1,42.1,46.2,81.9,75,119.1"/>
	<path class="st7" d="M388.3,1145.5c8.2,28.9,18.1,57.4,30,85.3c6.1,14.5,12.7,28.7,19.7,42.7"/>
	<path class="st7" d="M366.5,1036.5c4.5,36.9,11.7,73.3,21.8,109"/>
	<path class="st7" d="M366.5,1036.5c-3.5-29.2-5.3-58.8-5.3-88.7c0-29.9,1.8-59.4,5.3-88.7"/>
	<path class="st7" d="M366.5,859.2c5-41.6,13.6-82.6,25.8-122.5"/>
	<path class="st7" d="M392.3,736.6c7.4-24.3,16-48.2,26-71.7c8.8-20.9,18.6-41.3,29.3-61.1"/>
	<path class="st7" d="M447.5,603.8c22.7-42.3,49.6-82.2,80.3-119.3"/>
	<path class="st7" d="M527.9,484.5c14.5-17.5,29.9-34.4,46.2-50.7c51.3-51.3,109.1-94.1,172.4-127.9"/>
	<path class="st7" d="M746.5,306c19.1-10.2,38.7-19.5,58.7-28c27.7-11.7,55.9-21.6,84.5-29.7"/>
	<path class="st7" d="M889.7,248.2c36.2-10.3,73.2-17.7,110.7-22.2"/>
	<path class="st7" d="M1177.8,226.3c-29.5-3.6-59.4-5.4-89.6-5.4c-29.5,0-58.8,1.8-87.7,5.2v0.8"/>
	<path class="st7" d="M1280.4,246.5c-33.6-9.2-67.9-15.9-102.6-20.2v0.5"/>
	<path class="st7" d="M1280.4,246.5c30.8,8.4,61,18.9,90.7,31.5c18.2,7.7,36,16.1,53.4,25.2"/>
	<path class="st7" d="M1424.5,303.2c46.9,24.5,90.9,54,131.4,88.1"/>
	<path class="st7" d="M1555.9,391.3c15.9,13.4,31.4,27.6,46.3,42.5c15.2,15.3,29.8,31.1,43.5,47.5"/>
	<path class="st7" d="M1645.7,481.3c31.1,37.1,58.3,76.9,81.3,119.3"/>
	<path class="st7" d="M1727,600.6c11.3,20.8,21.7,42.3,31,64.3c9.6,22.6,17.9,45.5,25.1,68.8"/>
	<path class="st8" d="M805.2,278c27.7-11.7,55.9-21.6,84.5-29.7l-71-159.3c-27.3,8.6-54.3,18.5-80.9,29.7
		c-29.9,12.7-59,26.9-87.2,42.5L746.5,306C765.6,295.8,785.1,286.5,805.2,278z"/>
	<path class="st8" d="M1000.5,226.1v-174c-61.9,6-122.6,18.3-181.7,36.8l71,159.3C926,238,962.9,230.6,1000.5,226.1z"/>
	<path class="st8" d="M574.1,433.8c51.3-51.3,109.1-94.1,172.4-127.8l-95.9-144.8c-55.9,31.1-108.2,68.1-156.5,110.5l122.1,123.1
		L494.1,271.7c-14.5,12.8-28.6,26-42.4,39.8c-27.5,27.5-53.1,56.6-76.6,87l152.7,86C542.4,467,557.8,450.1,574.1,433.8z"/>
	<path class="st8" d="M418.3,664.9c8.8-20.9,18.6-41.3,29.3-61.1l-159.2-68.9c-10.6,20.4-20.4,41.3-29.4,62.7
		c-11.9,28.2-22.3,56.8-31.2,85.7l164.6,53.4C399.7,712.4,408.3,688.5,418.3,664.9z"/>
	<path class="st8" d="M527.9,484.5l-152.7-86c-33,42.8-62,88.3-86.9,136.4l159.2,68.9C470.3,561.5,497.1,521.6,527.9,484.5z"/>
	<path class="st9" d="M1088.1,220.9c30.2,0,60.1,1.8,89.6,5.4V52.3c-29.6-2.9-59.5-4.4-89.6-4.4c-29.5,0-58.7,1.4-87.7,4.2v174
		C1029.4,222.6,1058.6,220.9,1088.1,220.9z"/>
	<path class="st9" d="M1758,664.9c9.6,22.6,17.9,45.5,25.1,68.8l159.1-51.6l-159.1,51.6c13,42.2,22.1,85.4,27.1,129.4h173.9
		c-8.5-91.6-30.9-180.6-66.8-265.6c-9.5-22.5-19.9-44.4-31.1-65.9l-159.3,69C1738.3,621.4,1748.7,642.9,1758,664.9z"/>
	<path class="st9" d="M1727,600.6l159.3-69c-25.1-48.1-54.4-93.7-87.8-136.5l-152.8,86.1C1676.8,518.4,1704,558.2,1727,600.6z"/>
	<path class="st9" d="M1602.2,433.8c15.3,15.3,29.8,31.1,43.5,47.5l152.8-86.1c-22.8-29.2-47.5-57.2-74-83.7
		c-15-15-30.5-29.4-46.4-43.3l-122.2,123.1C1571.9,404.8,1587.3,418.9,1602.2,433.8z"/>
	<path class="st9" d="M1280.4,246.5L1351.5,87c-56.6-17.3-114.6-28.9-173.7-34.8v174.1C1212.5,230.6,1246.8,237.3,1280.4,246.5z"/>
	<path class="st8" d="M392.3,736.6l-164.6-53.4c-17.6,57.3-29.4,116-35.2,175.9h174C371.5,817.6,380.1,776.6,392.3,736.6z"/>
	<path class="st9" d="M1371.1,278c18.2,7.7,36,16.1,53.4,25.2l95.9-144.9c-26.5-14.5-53.9-27.8-82-39.7
		c-28.6-12.1-57.6-22.6-87-31.6l-71.1,159.5C1311.2,255,1341.4,265.4,1371.1,278z"/>
	<path class="st9" d="M1555.9,391.3l122.2-123.1c-48.7-42.3-101.4-79.1-157.7-109.9l-95.9,144.9
		C1471.4,327.7,1515.3,357.1,1555.9,391.3z"/>
	<path class="st10" d="M1758,1230.8c-6.4,15.2-13.3,30-20.7,44.6l150,86.6c10.8-20.8,20.8-42.1,30-63.8
		c12.4-29.4,23.2-59.2,32.4-89.5l-162.1-62C1779.5,1175.2,1769.7,1203.2,1758,1230.8z"/>
	<path class="st10" d="M1371.1,1617.7c-26.1,11-52.7,20.5-79.7,28.3l59.7,162.7c29.5-9,58.7-19.6,87.3-31.7
		c27.7-11.7,54.8-24.8,81-39.1l-92-147C1409.1,1600.7,1390.3,1609.6,1371.1,1617.7z"/>
	<path class="st11" d="M1088.1,1674.8c-29.2,0-58-1.7-86.6-5.1v174c28.6,2.7,57.5,4.1,86.6,4.1c30.5,0,60.7-1.5,90.7-4.5v-174.1
		C1149,1673,1118.7,1674.8,1088.1,1674.8z"/>
	<path class="st10" d="M1178.8,1669.2v174.1c58.6-5.8,116.2-17.4,172.3-34.5l-59.7-162.7C1254.6,1656.8,1217,1664.5,1178.8,1669.2z"
		/>
	<path class="st10" d="M1427.5,1591l92,147c49.9-27.3,97-59.1,141-95.5L1555,1505.2C1515.5,1538.3,1472.9,1567,1427.5,1591z"/>
	<path class="st12" d="M1809.8,1040.4h173.6c3.1-30.6,4.7-61.4,4.7-92.5c0-28.5-1.3-56.7-3.9-84.8h-173.9c3.2,28,4.9,56.2,4.9,84.8
		c0,68-9.2,134.5-27.5,198.8l162.1,62c16.6-54.8,27.9-111,33.7-168.3H1809.8z"/>
	<path class="st10" d="M1661.1,1395.3l126.8,118.5c38.3-47.2,71.5-97.9,99.4-151.8l-150-86.6
		C1715.9,1317.9,1690.4,1357.9,1661.1,1395.3z"/>
	<path class="st10" d="M1602.2,1461.9c-15.2,15.2-30.9,29.6-47.2,43.3l105.5,137.3c22.2-18.3,43.5-37.7,64-58.3
		c22.5-22.5,43.6-46,63.4-70.4l-126.8-118.5C1642.9,1418.6,1623.3,1440.8,1602.2,1461.9z"/>
	<path class="st11" d="M805.2,1617.7c-20.7-8.8-40.9-18.4-60.6-29l-92,146.9c27.5,15.2,56,29.1,85.2,41.4
		c26.9,11.4,54.3,21.4,82,30.1l59.7-162.6l-59.7,162.6c59.1,18.5,119.8,30.7,181.7,36.6v-174
		C933.9,1661.7,868.2,1644.4,805.2,1617.7z"/>
	<path class="st11" d="M418.3,1230.8c-11.8-27.9-21.8-56.4-30-85.3l-162.1,62c9.2,30.7,20.1,60.9,32.7,90.7
		c8.9,21.1,18.6,41.7,29,61.9l150-86.6C431,1259.5,424.4,1245.3,418.3,1230.8z"/>
	<path class="st11" d="M438,1273.5l-150,86.6c27.6,53.6,60.4,104.1,98.2,151L513,1392.6C484.1,1355.4,459.1,1315.6,438,1273.5z"/>
	<path class="st11" d="M366.5,1036.5h-174c5.7,58.2,16.9,115.3,33.7,171l162.1-62C378.2,1109.8,371,1073.4,366.5,1036.5z"/>
	<path class="st8" d="M361.2,947.9c0-29.9,1.8-59.4,5.3-88.7h-174c-2.9,29.3-4.3,58.9-4.3,88.7c0,29.8,1.4,59.4,4.3,88.7h174
		C363,1007.3,361.2,977.7,361.2,947.9z"/>
	<path class="st11" d="M574.1,1461.9c-21.9-21.9-42.3-45.1-61.1-69.3l-126.8,118.6c20.4,25.4,42.3,49.8,65.6,73.1
		c19.5,19.5,39.7,38,60.7,55.5L618,1502.4C602.9,1489.5,588.2,1476,574.1,1461.9z"/>
	<path class="st11" d="M618,1502.4l-105.5,137.3c43.7,36.4,90.5,68.5,140.1,95.9l92-146.9C699.4,1564.5,657.1,1535.6,618,1502.4z"/>
</g>
<g>
	<circle class="st5" cx="400.4" cy="1390.1" r="45.5"/>
	<circle class="st5" cx="622.3" cy="277.1" r="45.5"/>
	<circle class="st5" cx="1766" cy="497.9" r="45.5"/>
	<circle class="st5" cx="1544" cy="1621.5" r="45.5"/>
</g>
<path class="st4" d="M1227.1,1091l520.8,0c3.7,0,6.5,3.3,5.9,6.9c-9,60.4-110.9,414.9-525.2,521.8c-3.8,1-7.5-1.9-7.5-5.8V1097
	C1221.1,1093.7,1223.8,1091,1227.1,1091z"/>
<path class="st1" d="M1222.5,809.6V288.9c0-3.7,3.3-6.5,6.9-5.9c60.4,9,414.9,110.9,521.8,525.2c1,3.8-1.9,7.5-5.8,7.5h-516.8
	C1225.2,815.6,1222.5,813,1222.5,809.6z"/>
<path class="st2" d="M951.1,814.2l-520.8,0c-3.7,0-6.5-3.3-5.9-6.9c9-60.4,110.9-414.9,525.2-521.8c3.8-1,7.5,1.9,7.5,5.8l0,516.8
	C957.1,811.5,954.4,814.2,951.1,814.2z"/>
<path class="st3" d="M955.7,1085.9v520.8c0,3.7-3.3,6.5-6.9,5.9c-60.4-9-414.9-110.9-521.8-525.2c-1-3.8,1.9-7.5,5.8-7.5h516.8
	C953,1079.9,955.7,1082.5,955.7,1085.9z"/>
</svg>
